<svg xmlns="http://www.w3.org/2000/svg" viewBox="0 0 50.15 52.41"><defs><style>.cls-1{fill:#fecc00;}.cls-1,.cls-2,.cls-3{fill-rule:evenodd;}.cls-2{fill:#fff;}.cls-3{fill:#1c1b17;}</style></defs><title>Ресурс 3</title><g id="Слой_2" data-name="Слой 2"><g id="Слой_1-2" data-name="Слой 1"><path class="cls-1" d="M5.42,32.36c0,.47-.27.61-.52.86-.5.51-.24.55-.66.72s-3.85.4-3.85,4.34c0,.67-.11,1.48,1.09,1.48H49.14c1.67,0,1-3.27-.17-4.47A4,4,0,0,0,45.09,34V16.57c1.59,0,3.36.34,3.36-.89,0-4.1.47-3.66-2-4.65-.35-.14-.77-.33-1.16-.51l-.62-.27c-.19-.08-.4-.1-.4-.39V4.93a.71.71,0,0,0,.79-.79V.69c0-.36-.48-.69-.89-.69H37.89C36.44,0,36.8,1.58,36.8,3.65c0,.75.12,1.26.89,1.28V7.1L33,5c-1.74-.84-4.34-1.86-6.15-2.73s-1.4-.74-3.1,0L4.63,10.75c-1.16.56-2.57.83-2.57,1.68,0,4.7-.65,4.14,3.36,4.14ZM38.48,1.68h5V3.06c0,.23-.07.3-.3.3H38.48ZM3.64,13.22c0-.34.26-.36.52-.47l2-.91c2.37-1.15,5.63-2.46,8.12-3.62L25.15,3.45c.41,0,9.68,4.21,10.86,4.73.91.41,1.8.81,2.73,1.21l7.4,3.26a2.35,2.35,0,0,0,.63.26v2H45.09c0-1.37.16-1.28-1.05-1.81L35.38,9.32c-.91-.38-1.65-.71-2.55-1.1L27.88,6.06a11.19,11.19,0,0,0-2.72-1C24.72,5,10.9,11.14,10,11.51L7.55,12.6c-2.34,1-2.14.61-2.14,2.3H3.64A7.09,7.09,0,0,0,3.64,13.22Zm35.63-8c0-.23.07-.3.3-.3h3.06V9.27a10.78,10.78,0,0,1-1.81-.76C38.89,7.62,39.27,8.48,39.27,5.23Zm-25.38,6.4c.74-.31,1.5-.67,2.27-1l4.54-2c.6-.25,4.27-1.92,4.55-1.92l16,6.89c.42.18.76.3,1.18.5a6.1,6.1,0,0,0,1.12.46V32.76c-.23-.15-.48-.36-.7-.49a4.85,4.85,0,0,0-6.51,1.08,3.33,3.33,0,0,0-3.28.57c-.9.8-.42.91-1.16,1.31V21.9c0-1.72.33-3.65-.79-3.65H19.43c-.83,0-.79.65-.79,1.48V35.22c-.4-.09-.51-.27-.92-.36a6.14,6.14,0,0,0-1.25,0c-.34-1.26-2.65-2.1-3.95-1.48a4.85,4.85,0,0,0-3.75-1.87,5,5,0,0,0-1.78.3V14.6ZM8.28,33.15a3.11,3.11,0,0,1,3,1.31c.23.32.5.78,1,.73S13.85,34,15,35.44c.29.37.35,1.16,1,1.16.39,0,.5-.2.89-.2a1.77,1.77,0,0,1,1.78,1.68H2.06A2.41,2.41,0,0,1,3.82,35.7c.42-.12.88,0,1.26-.12s.49-.38.67-.72a3,3,0,0,1,.58-.8A3.18,3.18,0,0,1,8.28,33.15Zm11.94-13c0-.23.07-.3.3-.3h9.67V38.08h-10Zm14.9,14.6c1,0,1.42,1.2,2.35-.22a3.3,3.3,0,0,1,5.78.77c.57,1.69,1.47.33,2.43.33a2.45,2.45,0,0,1,2.76,2.47H31.87c0-1.34,1.23-1.52,1.5-1.76s.26-.65.64-1a1.64,1.64,0,0,1,.43-.36A3.56,3.56,0,0,1,35.12,34.73Z"/><path class="cls-1" d="M8.67,19.24v7.3c-.38,0-.29,0-.53.16a.81.81,0,0,0,.53,1.42H17a.79.79,0,1,0,0-1.58v-7.4a.81.81,0,0,0-.79-.89H9.46c-.59,0-.79.4-.79,1m1.68.59h4.93v1.68H10.35Zm0,3.35h4.93v3.36H10.35Z"/><path class="cls-1" d="M33.54,19v7.5c-1.23,0-.85,1.58-.2,1.58h8.49a.79.79,0,1,0,0-1.58c0-.64.08-7.28-.08-7.72-.09-.23-.34-.57-.61-.57H34.33a.74.74,0,0,0-.79.79m1.58,1.08c0-.23.07-.29.3-.29h4.74v1.68h-5Zm0,3.06h5v3.36H35.42c-.23,0-.3-.07-.3-.3Z"/><path class="cls-1" d="M6.9,35.42c0,1.43,1.35.69,1.78.69.25,0,.54.39.89.39,1.46,0,1-2.07-1-2.07-.62,0-1.68.51-1.68,1"/><path class="cls-1" d="M38.38,35.62a1,1,0,0,0,.79.79c.46,0,.56-.3.89-.3.52,0,.42.3,1.08.3s1.36-1.29-.34-1.83c-.95-.3-2.42.11-2.42,1"/><path class="cls-1" d="M21.9,29a.84.84,0,1,0,1.68-.1c0-1.07-1.68-1-1.68.1"/><path class="cls-2" d="M33.58,50.82l-.05,0c-1,.76-2.57.29-3.73.11l-1.32-.2a3.11,3.11,0,0,1-2.34-1c-.62-.9-.22-2.16-.07-3.16,0-.18.07-.4.11-.63l-5.25-.81a11.76,11.76,0,0,1-9.71,5.06A11.42,11.42,0,0,1,.62,35a12.15,12.15,0,0,1,.67-1.55A11,11,0,0,1,2.24,32a11.56,11.56,0,0,1,10-4.57,8.54,8.54,0,0,1,1.68.24l1.4.39.11,0A12.09,12.09,0,0,1,20.66,32a12.63,12.63,0,0,1,1.72,3.52l.13,0,2.47.35,7.26,1.09,10.66,1.62c2.24.34,3.72.69,4.84,2.94a4.93,4.93,0,0,1-4.71,7,8.23,8.23,0,0,1-1-.15c0,.27-.06.53-.09.74-.15,1-.16,2.33-1,3a3.05,3.05,0,0,1-2.42.25l-2.64-.4a3.06,3.06,0,0,1-2.24-1l-.08-.12"/><path class="cls-3" d="M21.28,36.77A7.24,7.24,0,0,1,21,36a11.45,11.45,0,0,0-1.53-3.15,10.68,10.68,0,0,0-4.6-3.42L13.52,29a6.61,6.61,0,0,0-1.43-.2,10.15,10.15,0,0,0-8.71,4,9.78,9.78,0,0,0-.82,1.34A10.24,10.24,0,0,0,2,35.5a10,10,0,0,0,9.3,13.3c3.45,0,7.41-2,8.93-5.2l7.58,1.17a16,16,0,0,1-.28,2c-.35,2.29-.65,2.29,1.21,2.57l1.32.2c.82.12,2.22.49,2.67.15.24-.18.52-3.48.73-4a5.45,5.45,0,0,1,1.82.22A16.53,16.53,0,0,1,34.94,48c-.35,2.29-.57,2.24,1.17,2.51l2.64.4c1.74.26,1.51.23,1.86-2.05a16.57,16.57,0,0,1,.34-2.08c.6,0,1.53.25,2.2.3a3.51,3.51,0,0,0,3.34-4.92c-.92-1.85-2.24-1.94-3.79-2.17s-20.93-3.21-21.42-3.19m-5.12,9.34a8.72,8.72,0,0,1-6.1,1.3,9.42,9.42,0,0,1-2.83-1,8.6,8.6,0,0,1-3.1-2.88,8.71,8.71,0,0,1,4.15-13,8.73,8.73,0,0,1,3-.58,8.83,8.83,0,0,1,8.42,5.88c.7,2-.18,1.85,2,2.19l4.67.7,6.21.93,10.93,1.64a2.18,2.18,0,0,1,1,4c-1.39,1-3.77-.44-4.51.11-.5.37-.51,3.17-.86,4.17l-3.07-.49c0-.38.34-2.47.45-3.14.17-1.13.14-1.24-1-1.41-3.52-.52-3.15-.87-3.57,1.85a16.08,16.08,0,0,1-.34,2.06l-3-.48A16.38,16.38,0,0,1,28.9,46c.39-2.61.61-2.24-2.26-2.67l-4.78-.72c-2.68-.4-2.18-.54-2.9.66A8.42,8.42,0,0,1,16.15,46.11Z"/><path class="cls-3" d="M13.92,42.69A4.29,4.29,0,0,0,16,39.52a4.65,4.65,0,0,0-8.71-2.88,4.69,4.69,0,0,0,5,6.74,4.41,4.41,0,0,0,1.68-.68m-.62-1.1a3.38,3.38,0,0,1-3.88-5.53,3.38,3.38,0,1,1,3.88,5.53Z"/></g></g></svg>