<svg xmlns="http://www.w3.org/2000/svg" viewBox="0 0 61.84 28.28"><defs><style>.cls-1{fill:#1c1b17;}.cls-2{fill:#fecc00;}.cls-3{fill:#2b2a29;}</style></defs><title>Ресурс 5</title><g id="Слой_2" data-name="Слой 2"><g id="Слой_1-2" data-name="Слой 1"><path class="cls-1" d="M12.71,2.63a6.26,6.26,0,1,0,1.83,4.43,6.24,6.24,0,0,0-1.83-4.43M8.28,0a7.05,7.05,0,1,1-5,2.07A7,7,0,0,1,8.28,0Z"/><path class="cls-2" d="M15.95,7.83H58.53a3.32,3.32,0,0,1,3.31,3.31V25a3.32,3.32,0,0,1-3.31,3.31H3.31A3.31,3.31,0,0,1,0,25V11.14A3.29,3.29,0,0,1,.82,9a7.62,7.62,0,0,0,.78,1.92,1.64,1.64,0,0,0,0,.25V25a1.73,1.73,0,0,0,1.72,1.72H58.53A1.73,1.73,0,0,0,60.26,25V11.14a1.73,1.73,0,0,0-1.72-1.72H15.62a7.62,7.62,0,0,0,.33-1.58"/><path class="cls-2" d="M9.07,20.81a.4.4,0,1,1,0-.79H53.29a.4.4,0,0,1,0,.79Z"/><path class="cls-2" d="M9.07,23.77a.4.4,0,1,1,0-.79H53.29a.4.4,0,0,1,0,.79Z"/><path class="cls-3" d="M8.09,7.05V3.71L7,2.65a.2.2,0,1,1,.28-.28l.78.78V1.92a.2.2,0,1,1,.4,0V3.15l.78-.78a.2.2,0,0,1,.28.28L8.48,3.71V10L9.54,11a.2.2,0,0,1-.28.28l-.78-.78v1.23a.2.2,0,0,1-.4,0V10.53l-.78.78A.2.2,0,0,1,7,11L8.09,10Z"/><path class="cls-3" d="M8.5,7H5.16L4.1,8.09a.2.2,0,0,1-.28-.28L4.59,7H3.36a.2.2,0,1,1,0-.4H4.59l-.78-.77a.2.2,0,1,1,.28-.28L5.16,6.64h6.26l1.05-1.05a.2.2,0,1,1,.28.28L12,6.64h1.23a.2.2,0,1,1,0,.4H12l.78.78a.2.2,0,1,1-.28.28L11.41,7Z"/><path class="cls-3" d="M8.58,6.82l-.3.3L6.21,9.19v1.49a.2.2,0,1,1-.4,0V9.59l-.87.87a.2.2,0,1,1-.28-.28l.87-.87H4.44a.2.2,0,1,1,0-.4H5.93L8,6.85l.3-.3,2.06-2.06V3a.2.2,0,1,1,.4,0v1.1l.87-.87a.2.2,0,1,1,.28.28L11,4.37h1.1a.2.2,0,1,1,0,.4H10.64Z"/><path class="cls-3" d="M8.27,6.54l.3.3,2.06,2.06h1.49a.2.2,0,0,1,0,.4H11l.87.87a.2.2,0,0,1-.28.28l-.87-.87v1.1a.2.2,0,1,1-.4,0V9.19L8.3,7.13,8,6.82,5.93,4.76H4.44a.2.2,0,0,1,0-.4h1.1L4.66,3.5a.2.2,0,1,1,.28-.28l.87.87V3a.2.2,0,1,1,.4,0V4.48Z"/></g></g></svg>