<svg xmlns="http://www.w3.org/2000/svg" viewBox="0 0 57.56 42.69"><defs><style>.cls-1{fill:#fecc00;}.cls-1,.cls-2{fill-rule:evenodd;}</style></defs><title>Ресурс 4_1</title><g id="Слой_2" data-name="Слой 2"><g id="Слой_1-2" data-name="Слой 1"><path class="cls-1" d="M56.32,18c.61-.61.9-1.19.29-1.8L41.32.94c-.71-.71-1.31-.2-1.8.29a29.23,29.23,0,0,1,2.79,2.91c-.44.71-1.42,1.39-1.28,2.09.71.14,1.38-.84,2.09-1.28a1.2,1.2,0,0,1,.35.23c1.24,1.24,1.12,1,.55,1.69,0,0-.28.38-.32.46-.13.27-.16.14,0,.41a3.43,3.43,0,0,0,.87-.64,1.82,1.82,0,0,1,3,1.69,1.55,1.55,0,0,1-.38.81c-.61.71-.24.32-.52.76.7.67,1.06-.92,1.63-.35Zm-.81.81c.24-.24.38-.32.17-.52L48,10.65c-1.16,1.11-2.68.22-1.43-1.34,1.06-1.33-.18-2-.77-2-.42,0-.47.05-.87.39-1.44,1.2-2.51.49-1.51-1,.29-.43.36-.28-.29-.93-.61.61-2,1.46-2.56.93s.34-2,.93-2.56L39.05,1.69,35,5.76c-1,1,.14,1.76,1.1,2.73a9.46,9.46,0,0,0,.41-1.92c.07-.33.12-.65.17-1s0-.54.41-1c.51.32.34.23.16,1.45L37,7.62c-.39,1.9-.37,1.37,1.45,3.2A19.55,19.55,0,0,0,39,7.91c.08-.44,0-.54.41-1,.51.32.34.23.16,1.45l-.27,1.57c-.39,1.9-.37,1.37,1.45,3.2a19.57,19.57,0,0,0,.58-2.91c.07-.44,0-.54.41-1,.51.32.34.23.16,1.45L41.48,13c-.06.29-.16.57,0,.81s1.32,1.35,1.6,1.63a19.56,19.56,0,0,0,.58-2.91c.08-.44,0-.54.41-1,.51.32.34.23.16,1.45l-.27,1.57c-.39,1.9-.37,1.37,1.45,3.2A19.54,19.54,0,0,0,46,14.89c.07-.44,0-.54.41-1,.51.32.34.23.16,1.45l-.27,1.57c-.39,1.9-.37,1.37,1.45,3.2a2.23,2.23,0,0,0,.23-.93l.35-2c.08-.44,0-.54.41-1,.39.24.37.21.3.64,0,.27-.1.53-.14.82s-.08.47-.14.76L48.46,20c-.2,1-.08.78,1.58,2.44a19.7,19.7,0,0,0,.58-2.91c.08-.44,0-.54.41-1,.38.24.39.12.24,1a29,29,0,0,0-.53,3.37c.88.17,1.93-1.23,2.91-2.21.14-.14.19-.26.26-.33l.78-.71c.23-.23.22-.31.36-.45S55.27,19.07,55.5,18.84Zm.64,1.92-.87-.87c-.83.83-.83.56.06,1.45a1.17,1.17,0,0,0,.35.23.91.91,0,0,0,.48-.29A.42.42,0,0,0,56.14,20.76ZM34.69,19.66l3.55,3.55a.63.63,0,0,0,1-.8c-.14-.17-.1-.06-.31-.31-.79-.95-.41-.43-1.08-1.06l-.65-.74c-.25-.25-.36-.28-.52-.42-.41-.38-1.28-1.85-2-1.15A.62.62,0,0,0,34.69,19.66ZM23,31.31l-6.11,6.11L20.47,41l6.11-6.11.47.47-6,6c-.54.54-.57.59-1.1.05a1.82,1.82,0,0,1-1.45.2c-2.15-.5-2.66-2.82-2-3.63-.71-.71-.5-.55,1.39-2.44l4.66-4.67Zm14.74-7.64-3.55-3.55-3.74,3.74L30,23.38l3.84-3.84c.2-.36-.12-.78.38-1.28a1.36,1.36,0,0,1,1.69-.06l1.63,1.63a2.84,2.84,0,0,0,.15-3.78l-5.44-5.46a3.69,3.69,0,0,1-.12-5.46C33.3,4,34.29,2.67,35.74,2.4a4,4,0,0,1,.93-.07c1.1.12.67.34,2.12-1.27A7.54,7.54,0,0,1,40,.09a1.75,1.75,0,0,1,1.74.39L57,15.65a1.65,1.65,0,0,1,.06,2.5l-.76.76-.52.52c.71.71,1.67,1.47.7,2.44s-1.89-.54-2.32-.81l-1.28,1.28c-.5.5-1.5,1.72-2.62,1.06A7.9,7.9,0,0,1,48.82,22c-.25-.25-.37-.28-.52-.43l-.65-.74c-.24-.25-.36-.28-.52-.42l-.64-.74c-.25-.24-.37-.28-.52-.42l-.65-.74c-.24-.24-.36-.28-.52-.42l-.65-.74c-.25-.24-.37-.28-.52-.42L43,16.23c-.24-.25-.36-.28-.52-.42l-.65-.74c-.24-.24-.36-.28-.52-.42l-.65-.74c-.25-.25-.37-.28-.52-.42l-.65-.74c-.24-.25-.36-.28-.52-.42l-.64-.74c-.25-.24-.37-.28-.52-.42l-.65-.74c-.25-.25-.36-.28-.52-.42L36,9.25c-.31-.31-.45-.31-.69-.64-.71-.94-1.45-1-1.32-2.33C34.1,5.57,36.28,3.66,36.9,3c-1.74-.54-3.12,1.38-4.53,2.79A2.81,2.81,0,0,0,31.6,8a3.1,3.1,0,0,0,1.23,2.21l4.48,4.48c1.35,1.35,2,2.62,1.38,4.48-.53,1.52-1.17.62.42,2.21.43.43.74.63.83,1.1A1.2,1.2,0,0,1,38.41,24L34.5,27.87,34,27.4ZM19.48,40.91,17,38.41c-.69,1.11,1.11,2.88,2.21,2.61A1.37,1.37,0,0,0,19.48,40.91Z"/><path class="cls-2" d="M21.6,6.22a12.71,12.71,0,0,0-3.32-.7,3.57,3.57,0,0,0-2.19.68c-1.56,1.23-.45,2.79-.45,3.09s-1.21,1-1.21,1.4c0,1.1-.07.74,1.09,1.88l.51.6c.17.2.37.37.56.56A16.37,16.37,0,0,0,18.9,15.9a2.62,2.62,0,0,1,1.71.24l2.61,2.51a21.92,21.92,0,0,0,1.61,1.55L40.59,36c.69.69,1.57,1.3,1.29,2.64A2.36,2.36,0,0,1,41.14,40c-1,1-2.3,2.68-3.47,2.68-1.39,0-1.41-.15-2.44-1.19L20.08,26.35a4.74,4.74,0,0,1-.47-.37l-.37-.37L17,23.32c-1.44-1.44-2.35-1.82-1.89-3.79-.78-.52-3.29-3.62-4.28-4.28-.4.21-.33.18-.93.18a6.12,6.12,0,0,1-.86.91c-.74.74-.62,1.21-1.63.19a2.09,2.09,0,0,0-.7-.56L6,16.74c.34.51.84.61.84,1.49a1.75,1.75,0,0,1-.53,1.52c-.94.86-2.07.39-2.89-.42L2.16,18C1.25,17.1,0,16.16,0,15.15a1.75,1.75,0,0,1,.51-1.35c1.35-1.32,2.74.2,3,.35l.63-.67c-.23-.16-.32-.3-.56-.47-1-.71-.22-.88.37-1.77-.73-1.09.11-1.61,1.33-3l.56-.65c1.06-1.06,2-2.94,3.14-2.17L10.4,4.24c.54-.41,1-.75,1.59-1.11C14.22,1.7,17.8.62,19.9,2.61a2,2,0,0,0,.19.18c.16.12.08,0,.22.15a8.62,8.62,0,0,1,1.5,2.41c.18.37.35.87-.22.87m-.65-.93a5.15,5.15,0,0,0-1.42-2.11C16.29.44,11.09,4.24,9.24,6.24L4,12.36c.67,1,1.56.71.3,2-.78.78-.58,1.15-1.63.09a1.13,1.13,0,0,0-2,.63c0,.81,2.38,2.61,3.13,3.58,1.44,1.87,2.37.29,2.37-.23,0-.9-1-1.09-1-1.58s1.3-1.77,1.49-1.77c.46,0,1.07.83,1.49,1.12A6.6,6.6,0,0,0,9,15.32L14.8,9.1a2.93,2.93,0,0,1-.18-1.76C15.2,4.31,19.42,4.55,20.95,5.29ZM18.06,16.18c-.42-.29-2.48-2.44-3.14-3.1a5.13,5.13,0,0,1-.5-.52c-.21-.26-.17-.38-.57-.5l-.35.39c.12.43.68.79,1,1.17l3,3.19Zm-1.12,1.12a6,6,0,0,1-1-1.09c-.38-.41-.63-.61-1-1.06L12.85,13c-.37.7-1.08,1.06-1.49,1.68l4.08,4.17Zm3.63-.19a1.47,1.47,0,0,0-1.94-.36,1.78,1.78,0,0,0-.5.43c-.77.79-2.49,2.2-2.49,3,0,1.07.31,1.1,1.14,1.93L35.7,40.94c.53.53.87,1.09,1.79,1.09s1.61-1,2.12-1.51c1-1,2.42-2.13,1.12-3.4-.25-.25-11-11.08-11.31-11.27-.52.35-1.44,1.68-2,1.68-.28,0-.84-.7-1-.91a7.46,7.46,0,0,1-1-1,9.48,9.48,0,0,1,1.77-2l-.91-1c-.67.2-1.09,1.49-2,1.7A19.8,19.8,0,0,1,22.83,23c-.38-.33-.49-.18-.49-.72,0-.32,1.34-1.41,1.58-1.77l-1-1.1c-.26.17-1.65,1.65-1.75,1.65A4.75,4.75,0,0,1,19,19C19,18.72,20.28,17.54,20.57,17.11Zm.56.56c-.48.32-.62.85-1.3,1.3a4.16,4.16,0,0,0,1.23,1.14l1.3-1.25ZM25.69,22a3.13,3.13,0,0,1-.63-.49,4,4,0,0,0-.6-.56l-1.3,1.25,1.23,1.19C24.51,23.36,25.6,22.18,25.69,22Zm2,2.14-1.28,1.38,1.19,1.14c.31-.46,1.07-.86,1.23-1.42Z"/></g></g></svg>