<svg xmlns="http://www.w3.org/2000/svg" viewBox="0 0 211.1 200.74"><defs><style>.cls-1,.cls-2{fill-rule:evenodd;}.cls-2{fill:#fc0;}</style></defs><title>logo-шапка</title><g id="Слой_2" data-name="Слой 2"><g id="_1" data-name="1"><path class="cls-2" d="M100.81.1h9.48a2,2,0,0,1,2,.48L125.74,14a2,2,0,0,1,0,2.81l-34,34a2,2,0,0,1-1.52.58H79.56a2,2,0,0,1-1.33-.58L64.82,37.35a2,2,0,0,1,0-2.81l34-34a2,2,0,0,1,2-.48ZM79.39,49.61a.35.35,0,0,0,.5,0l33.79-33.79h11.71c.58,0,.48-1,0-1H113.55L100.43,1.74a.35.35,0,0,0-.5,0l-34,34a.35.35,0,0,0,0,.5L79.39,49.61ZM161,62.32,147.87,49.18a.35.35,0,0,0-.5,0L100.18,96.37,53,49.18a.35.35,0,0,0-.5,0L39.08,62.59a.35.35,0,0,0,0,.5l60.85,60.85a.35.35,0,0,0,.5,0l60.66-60.66h11.58c.58,0,.48-1,0-1ZM137.28,38.59,124.15,25.46a.35.35,0,0,0-.5,0l-34,34a.35.35,0,0,0,0,.5l13.42,13.42a.35.35,0,0,0,.5,0l33.77-33.77H149c.58,0,.48-1,0-1ZM124,23.72a2,2,0,0,0-1.5.58l-34,34a2,2,0,0,0,0,2.81L102,74.48a2,2,0,0,0,1.51.58h10.48a2,2,0,0,0,1.56-.58l34-34a2,2,0,0,0,0-2.81L136,24.3a2,2,0,0,0-1.26-.58H124Zm23.7,23.72a2,2,0,0,0-1.48.58L105.55,88.69,64.89,48a2,2,0,0,0-2-.48H53.38a2,2,0,0,0-1.81.28,1.62,1.62,0,0,0-.28.25L37.92,61.44a2,2,0,0,0,0,2.81L98.78,125.1a2,2,0,0,0,1.2.57h10.76a2,2,0,0,0,1.59-.57l60.85-60.85a2,2,0,0,0,0-2.81L159.76,48a2,2,0,0,0-1.42-.58Z"/></g></g></svg>