<svg xmlns="http://www.w3.org/2000/svg" viewBox="0 0 37.87 40.76"><defs><style>.cls-1,.cls-2{fill-rule:evenodd;}.cls-2{fill:#fecc00;}</style></defs><title>Ресурс 7</title><g id="Слой_2" data-name="Слой 2"><g id="Слой_1-2" data-name="Слой 1"><path class="cls-1" d="M0,34.37a.66.66,0,0,0,.72.72c0,3.21-.43,2.86,2.79,2.86,0,3.27-.5,2.78,3.5,2.78,1,0,.72-1.46.72-2.78H30.15c0,3.27-.5,2.78,3.5,2.78,1,0,.72-1.51.72-2.78,3.21,0,2.78.34,2.78-2.86a.57.57,0,0,0,.48-.16.7.7,0,0,0-.2-1.16,4,4,0,0,0-1.16,0c-.72,0-.55,0-.55-1.76V1.67C35.72,1,35.94,0,35,0H2.86a.72.72,0,0,0-.69.43l0,32.51c0,.58.15.78-.39.8S0,33.48,0,34.37M3.5,1.43H34.37v32.3H32.94V3.5c0-.49-.38-.72-.88-.72H5.81c-.5,0-.87.23-.87.72V33.73H3.5ZM6.29,4.22h25.3V18.06c0,.18-.06.24-.24.24H6.52c-.18,0-.24-.06-.24-.24Zm0,15.43h25.3V33.73H6.29ZM2.07,35.32c0-.18.06-.24.24-.24H35.56c.37,0,.24.49.24,1.43H2.07Zm2.86,2.63H6.29V39.3H4.93Zm26.65,0h1.35V39.3H31.59Z"/><path class="cls-2" d="M23.07,16.23a.74.74,0,0,0,.72.72c.48,0,2.85-2.57,3.32-3s3.12-3,3.12-3.32a.75.75,0,0,0-.72-.8c-.45,0-1.39,1.12-1.73,1.45l-3.22,3.22c-.34.34-1.49,1.32-1.49,1.77"/><path class="cls-2" d="M7.64,13.44a.73.73,0,0,0,.54.65c.64.16,1.38-.86,2.07-1.55.36-.36,2.41-2.24,2.41-2.61s-.09-.83-.65-.85c-.36,0-.56.26-.77.48l-3.1,3.1c-.2.2-.5.42-.5.78"/><path class="cls-2" d="M7.64,9.23c0,.39.6,1.11,1.37.34L11.56,7c1-1-.11-1.45-.18-1.45-.53,0-.8.44-1.09.74L8.45,8.13c-.25.25-.82.67-.82,1.09"/><path class="cls-2" d="M28,14.8c0,.5.22.72.72.72s.66-.38.9-.62.62-.57.62-.9a.82.82,0,0,0-.72-.72c-.34,0-1.51,1-1.51,1.51"/><path class="cls-2" d="M14,6.92c0,.39,0,.88.64.88s1.51-1.19,1.51-1.35c0-.42-.09-.87-.64-.87S14,6.76,14,6.92"/><path class="cls-2" d="M12.57,8.51c0,1,1.51.91,1.51-.24,0-.78-1.51-.79-1.51.24"/><path class="cls-2" d="M26.57,16.15a.76.76,0,1,0,1.51-.08.7.7,0,0,0-1.22-.42,1.91,1.91,0,0,0-.29.5"/></g></g></svg>