<svg xmlns="http://www.w3.org/2000/svg" viewBox="0 0 47.68 38.57"><defs><style>.cls-1{fill:#fecc00;}.cls-2{fill:#2b2a29;}</style></defs><title>Ресурс 6_1</title><g id="Слой_2" data-name="Слой 2"><g id="Слой_1-2" data-name="Слой 1"><polygon class="cls-1" points="1.79 0 1.79 37.87 0 38.57 0 0 1.79 0"/><polygon class="cls-1" points="13.75 16.85 13.75 33.18 12.41 33.69 12.41 16.85 13.75 16.85"/><polygon class="cls-1" points="45.89 0 45.89 37.87 47.68 38.57 47.68 0 45.89 0"/><polygon class="cls-1" points="34.91 16.85 34.91 33.18 36.25 33.69 36.25 16.85 34.91 16.85"/><path class="cls-2" d="M2.81,1.42l10.32,14H35.51l9.5-14ZM12.2,16.56.83,1.13,0,0H47.68l-.75,1.11L36.47,16.54l-.21.31H12.41Z"/></g></g></svg>